<svg xmlns="http://www.w3.org/2000/svg" xmlns:xlink="http://www.w3.org/1999/xlink" viewBox="0,0,256,256" width="25px" height="25px"><g fill="#d2d2d2" fill-rule="nonzero" stroke="none" stroke-width="1" stroke-linecap="butt" stroke-linejoin="miter" stroke-miterlimit="10" stroke-dasharray="" stroke-dashoffset="0" font-family="none" font-weight="none" font-size="none" text-anchor="none" style="mix-blend-mode: normal"><g transform="scale(5.12,5.12)"><path d="M21.85742,7c-1.575,0 -2.85742,1.28242 -2.85742,2.85742v3.14258h-8.5c-0.276,0 -0.5,0.224 -0.5,0.5c0,0.276 0.224,0.5 0.5,0.5h2.42578l1.36719,24.60742c0.107,1.902 1.68194,3.39258 3.58594,3.39258h14.24219c1.904,0 3.47994,-1.48962 3.58594,-3.39062l1.36719,-24.60937h2.42578c0.276,0 0.5,-0.224 0.5,-0.5c0,-0.276 -0.224,-0.5 -0.5,-0.5h-8.5v-3.14258c0,-1.575 -1.28242,-2.85742 -2.85742,-2.85742zM21.85742,8h6.28516c1.024,0 1.85742,0.83342 1.85742,1.85742v3.14258h-10v-3.14258c0,-1.024 0.83242,-1.85742 1.85742,-1.85742zM13.92773,14h22.14453l-1.36328,24.55273c-0.077,1.372 -1.21389,2.44727 -2.58789,2.44727h-14.24219c-1.374,0 -2.51089,-1.07427 -2.58789,-2.44727zM19.16992,19c-0.275,0.009 -0.49242,0.24158 -0.48242,0.51758l0.55469,16c0.01,0.27 0.231,0.48047 0.5,0.48047h0.01953c0.275,-0.009 0.49047,-0.23962 0.48047,-0.51562l-0.55469,-16c-0.009,-0.276 -0.25058,-0.52042 -0.51758,-0.48242zM25,19c-0.276,0 -0.5,0.224 -0.5,0.5v15.93164c0,0.276 0.224,0.5 0.5,0.5c0.276,0 0.5,-0.224 0.5,-0.5v-15.93164c0,-0.276 -0.224,-0.5 -0.5,-0.5zM30.83008,19c-0.285,-0.02 -0.50758,0.20742 -0.51758,0.48242l-0.55664,16c-0.01,0.276 0.20742,0.50662 0.48242,0.51563h0.01758c0.269,0 0.49,-0.21047 0.5,-0.48047l0.55664,-16c0.01,-0.276 -0.20742,-0.50858 -0.48242,-0.51758z"></path></g></g></svg>